<svg width="722" height="482" fill="none" xmlns="http://www.w3.org/2000/svg"><path opacity=".2" d="M653.637 1506.79c109.178-258.38 123.538-417.78 102.38-543.63 27.391 121.3 18.883 276.91-79.895 535.08 101.688-259.39 111.894-417.21 86.92-540.432 31.115 118.222 26.593 271.962-63.454 529.112 93.06-258.71 99.121-414.65 70.328-534.911 34.842 114.801 34.325 266.431-46.051 520.831 83.461-256.28 85.386-410.09 52.781-527.066 38.522 111.096 42.05 260.356-27.936 510.306 73.134-252.15 70.893-403.58 34.493-516.949 42.193 107.089 49.825 253.739-9.306 497.629 62.292-246.38 55.866-395.2 15.679-504.669 45.814 102.809 57.632 246.609 9.613 482.979 51.18-239.12 40.509-385.08-3.416-490.376 49.376 98.286 65.478 238.996 28.582 466.596 40.047-230.59 25.041-373.46-22.571-474.331 52.866 93.551 73.372 230.931 47.42 448.731 29.051-221.01 9.612-360.56-41.616-456.795 56.283 88.639 81.313 222.435 65.953 429.735 18.406-210.67-5.565-346.686-60.348-438.087 59.607 83.568 89.301 213.547 84.049 409.917 8.212-199.86-20.41-332.132-78.663-418.528 62.845 78.374 97.332 204.288 101.644 389.648-1.419-188.92-34.84-317.22-96.469-398.497 66.008 73.096 105.417 194.727 118.702 369.277-10.48-178.15-48.83-302.271-113.748-378.346 69.042 67.744 113.504 184.856 135.222 349.126-18.984-167.88-62.39-287.595-130.51-358.384 71.998 62.368 121.63 174.724 151.299 329.514-27.007-158.33-75.588-273.463-146.811-338.932 74.864 56.989 129.764 164.402 167.012 310.702-34.648-149.78-88.531-260.114-162.779-320.26 77.66 51.627 137.897 153.895 182.519 292.89-42.056-142.385-101.34-247.738-178.53-302.568 80.363 46.301 146.014 143.252 197.96 276.238-49.414-136.267-114.175-236.465-194.238-286.006 82.994 41.032 154.098 132.497 213.508 260.846-56.89-131.5-127.191-226.376-210.044-270.685 85.564 35.81 162.124 121.66 229.314 246.705-64.66-128.086-140.545-217.481-226.117-256.605 88.07 30.687 170.077 110.801 245.527 233.825-72.91-125.935-154.373-209.719-242.609-243.736 90.523 25.632 177.939 99.907 262.259 222.046-81.76-124.938-168.792-203.002-259.631-231.968 92.903 20.642 185.671 89.028 279.591 211.233-91.32-124.923-183.875-197.153-277.253-221.148 95.22 15.722 193.263 78.175 297.543 201.166-101.65-125.648-199.66-191.992-295.506-211.072 97.455 10.878 200.696 67.374 316.086 191.612-112.76-126.845-216.12-187.239-314.361-201.461 99.617 6.091 207.911 56.645 335.141 182.309-124.58-128.26-233.196-182.67-333.739-192.1 101.677 1.349 214.889 45.986 354.569 172.97-137.05-129.591-250.745-178.02-353.489-182.685 103.616-3.356 221.619 35.427 374.169 163.329-149.98-130.54-268.619-173.013-373.443-172.957 105.413-8.019 228.033 24.966 393.713 153.134-163.17-130.87-286.568-167.428-393.331-162.667 107.049-12.666 234.111 14.632 412.921 142.176-176.41-130.34-304.363-161.047-412.893-151.602 108.505-17.302 239.823 4.402 431.473 130.25-189.41-128.73-321.712-153.677-431.821-139.541 109.741-21.917 245.101-5.694 449.071 117.245-201.9-125.929-338.328-145.206-449.804-126.402 110.756-26.529 249.964-15.667 465.394 103.069-213.59-121.835-353.92-135.544-466.513-112.071 111.5-31.133 254.323-25.52 480.113 87.707-224.21-116.427-368.178-124.698-481.639-96.546 111.964-35.728 258.149-35.244 492.989 71.181-233.54-109.725-380.894-112.668-494.912-79.855 112.128-40.295 261.422-44.85 503.772 53.589-241.37-101.823-391.827-99.546-506.112-62.069 111.97-44.846 264.092-54.342 512.262 35.054-247.53-92.853-400.799-85.464-515.01-43.351 111.491-49.358 266.13-63.737 518.37 15.763-251.93-82.991-407.711-70.579-521.526-23.846 110.659-53.815 267.476-73.041 521.986-4.108-254.54-72.457-412.502-55.069-525.571-3.773 109.486-58.215 268.151-82.271 523.141-24.337-255.37-61.462-415.165-39.143-527.144 16.681 107.979-62.55 268.074-91.442 521.914-44.713-254.55-50.23-415.799-22.996-526.327 37.29 106.128-66.787 267.257-100.572 518.417-65.04-252.19-38.996-414.516-6.811-523.25 57.86 103.955-70.937 265.68-109.682 512.85-85.149-248.51-27.939-411.477 9.254-518.093 78.213 101.467-74.98 263.293-118.795 505.443-104.902-243.74-17.229-406.912 25.06-511.075 98.221 98.683-78.915 260.105-127.92 496.435-124.209-238.16-6.977-401.051 40.537-502.469 117.792 95.607-82.732 256.119-137.098 486.129-143.037-232.05 2.765-394.166 55.645-492.533 136.885 92.265-86.439 251.313-146.318 474.783-161.397-225.69 11.978-386.506 70.405-481.559 155.531 88.678-90.026 245.689-155.601 462.679-179.377-219.34 20.729-378.322 84.884-469.815 173.776 84.867-93.501 239.275-164.966 450.055-197.077-213.27 29.109-369.853 99.205-457.533 191.773 80.832-96.886 232.053-174.413 437.123-214.691-207.66 37.302-361.271 113.542-444.933 209.673C865.15 460.894 1012.58 377.13 1212.58 328.652c-202.66 45.499-352.733 128.076-432.155 227.69 72.191-103.367 215.281-193.531 410.925-250.44-198.375 53.917-344.322 143.015-419.328 246.02C839.627 445.438 977.788 348.731 1169.82 282.9 975 345.697 833.745 441.489 763.345 547.82c62.858-109.547 195.544-212.888 384.665-288.373-191.987 72.378-327.974 174.996-393.594 284.582 57.937-112.537 184.632-222.603 371.444-308.67-189.754 82.886-319.929 192.423-380.606 305.21 52.864-115.483 173.06-232.306 358.026-330.065C915.305 304.98 791.461 421.507 735.878 537.44c47.639-118.364 160.876-241.962 344.222-352.637C893.628 292.11 776.614 415.646 726.308 534.664c42.252-121.192 148.118-251.531 329.852-376.422-184.986 121.438-294.709 251.962-339.586 374 36.713-123.957 134.815-260.963 314.696-401.351C848.01 267.751 745.99 405.2 706.696 530.184c31.019-126.638 121.023-270.203 298.494-427.291-181.018 153.503-274.94 297.762-308.488 425.609C721.874 399.288 803.475 249.29 977.76 74.49c-178.012 171.208-263.5 322.13-291.147 452.726C705.802 395.55 778.753 239.28 948.79 45.975 774.826 235.71 698.049 393.107 676.447 526.328c13.051-133.965 77.145-296.304 241.692-508.605-168.678 208.802-236.494 372.454-251.894 508.135 6.785-136.087 61.852-304.284 219.484-535.687-161.967 228.037-220.633 397.69-229.704 535.647.401-137.985 46.322-311.793 195.498-562.03C697.805 210.83 648.449 386.222 645.828 526.229c-6.085-139.626 30.59-318.789 169.722-587.164C671.676 204.488 631.734 385.31 635.682 527.093c-12.651-140.99 14.737-325.22 142.229-610.616C645.495 199.203 615.019 385.15 625.607 528.43c-19.28-142.017-1.202-331.024 113.151-631.929-119.43 298.57-140.407 489.301-123.114 633.731-25.934-142.695-17.149-336.158 82.679-650.677-105.04 312.578-116.534 507.754-92.512 652.975-32.583-142.982-33.064-340.57 51.07-666.528-89.424 324.444-91.49 523.702-60.724 669.323-39.198-142.867-48.869-344.207 18.605-679.2-72.822 333.928-65.525 536.883-28.057 682.483-45.74-142.329-64.518-347.027-14.376-688.49-55.499 340.868-38.934 547.128 5.153 692.283-52.171-141.346-79.951-348.987-47.526-694.324-37.74 345.204-12.041 554.353 38.563 698.618-58.448-139.936-95.1-350.065-80.495-696.698-19.849 346.983 14.834 558.574 71.822 701.494-64.553-138.08-109.916-350.21-112.917-695.728-2.122 346.323 41.383 559.9 104.563 701.027-70.444-135.804-124.34-349.387-144.465-691.61 15.165 343.455 67.292 558.498 136.462 697.404-76.083-133.108-138.323-347.597-174.848-684.633 31.779 338.667 92.309 554.638 167.216 690.902C454.4 438.831 384.06 224.058 332.044-106.264c47.496 332.312 116.202 548.651 196.582 681.872-86.527-126.572-164.722-340.971-231.153-663.474 62.158 324.794 138.796 540.891 224.343 670.687-91.269-122.779-177.058-336.122-256.731-650.11 75.681 316.54 159.964 531.754 250.363 657.771-95.684-118.663-188.754-330.246-280.462-635.43 87.996 307.957 179.643 521.605 274.547 643.529-99.762-114.263-199.762-323.342-302.329-619.854C306.332 278.183 405.011 489.55 504.091 607.09 400.603 497.481 294.02 291.67 181.733 3.375c109.133 291.381 214.493 499.745 317.4 612.623-53.272-54.23-108.376-128.38-165.026-227.322-56.695-98.343-114.946-221.468-175.6-360.012 59.238 140.168 116.461 264.764 172.465 364.62 55.95 100.445 110.691 176.151 163.709 231.993-54.844-51.701-112.058-123.344-171.526-219.636-59.491-95.683-121.235-216.017-185.751-351.273 63.24 136.897 124.04 258.823 182.928 356.103 58.843 97.879 115.764 171.121 170.402 224.445-56.24-49.045-115.363-117.992-177.4-211.545-62.041-92.963-126.996-210.523-195.031-343.068 66.878 134.2 130.995 253.468 192.509 348.091 61.5 95.223 120.407 165.822 176.483 216.482-57.463-46.252-118.301-112.325-182.691-203.07-64.373-90.165-132.288-205.011-203.599-335.406 70.254 132.074 137.446 248.713 201.38 340.621 63.939 92.499 124.62 160.257 181.988 208.126-116.83-83.162-249.942-261.375-398.983-522.472C232.482 397.237 365.197 579.376 481.979 665.71c-118.483-77.334-255.47-247.936-410.695-506.48 153.472 262.087 290.283 436.844 408.821 517.303C360.291 605.2 219.944 442.821 58.541 186.231 218.358 446.46 358.782 613.166 478.762 687.588 357.931 622.42 214.722 468.802 47.06 213.903c166.261 258.666 309.781 416.74 430.88 484.951-121.535-58.831-267.075-203.195-441.178-456.321C209.608 499.582 355.716 648.482 477.63 710.311 355.684 657.998 208.326 523.31 27.613 272.42c179.619 254.989 327.794 394.244 450.223 449.499-122.045-45.622-270.735-170.276-458.194-418.074 186.526 252.114 336.274 381.314 458.913 429.812-121.85-38.748-271.384-153.068-465.646-396.565C206.418 585.133 357.224 703.917 479.78 745.486 358.428 713.793 208.51 610.047 7.513 372.404c200.435 242.444 351.829 350.523 473.992 384.98-120.563-24.475-270.422-117.46-477.928-347.428 207.143 235.037 358.645 332.192 480.13 359.356-119.468-17.095-268.854-99.193-482.43-319.456C214.71 675.468 365.896 761.541 486.38 781.249 368.319 771.676 219.774 700.551.784 492.12c219.085 214.049 369.54 288.924 488.738 301.025-116.356-1.919-263.703-62.027-487.243-256.479C226.174 736.977 375.52 800.598 493.118 804.979c-114.345 5.818-260.175-43.25-487.19-221.639C233.58 767.789 381.47 820.133 497.15 816.68c-112.029 13.627-256.049-24.43-485.266-184.812C242.01 798.522 388.118 839.615 501.596 828.267c-109.402 21.45-251.372-5.626-481.368-146.324 231.198 147.121 375.257 177.003 486.211 157.738-106.495 29.262-246.163 13.107-475.402-106.534C261.776 859.293 403.52 878.054 511.66 850.879c-103.295 37.017-240.467 31.691-467.342-65.857 228.672 104.105 367.887 111.845 472.943 76.821-99.842 44.671-234.323 50.071-457.238-24.769 224.983 81.379 361.485 78.221 463.18 35.445-96.131 52.167-227.757 68.18-445.18 16.268 219.754 58.371 353.366 44.479 451.436-5.898-92.185 59.48-220.82 85.952-431.334 56.785 213.091 35.505 343.656 11.033 437.892-46.754-88.047 66.552-213.524 103.319-415.906 96.326 205.155 13.144 332.556-21.709 422.74-86.674-83.729 73.35-205.931 120.228-399.174 134.498 196.196-8.36 320.314-53.376 406.255-125.257-79.269 79.845-198.057 136.587-381.454 170.937 186.471-28.7 307.187-83.655 388.761-162.127-74.695 86.007-189.948 152.367-363.072 205.387 176.281-47.68 293.493-112.29 370.578-197.039-70.047 91.809-181.632 167.479-344.402 237.629 165.979-65.14 279.596-139.1 352.098-229.764-65.354 97.224-173.159 181.894-325.799 267.544 155.853-80.99 265.772-163.99 333.645-260.183-60.635 102.263-164.545 195.523-307.602 295.103 146.225-95.27 252.35-186.92 315.579-288.278-55.941 106.908-155.828 208.358-290.12 320.318 137.393-107.98 239.619-207.91 298.209-314.028-51.281 111.148-147.038 220.348-273.64 343.308 129.597-119.33 227.827-227.09 281.821-337.566-46.675 115.006-138.212 231.456-258.366 364.206 123.021-129.44 217.167-244.58 266.599-359.031-42.163 118.471-129.359 241.641-244.457 383.231 117.827-138.56 207.788-260.59 252.754-378.625-37.737 121.555-120.521 250.915-232.002 400.585 114.062-146.92 199.748-275.33 240.321-396.568C595.98 1101.12 517.681 1236.1 408.386 1393.35c111.715-154.75 193.045-288.99 229.332-413.061-29.189 126.621-102.929 266.651-211.396 431.201 110.736-162.28 187.636-301.8 219.722-428.355-25.078 128.625-94.226 273.115-203.063 444.875 110.984-169.7 183.383-313.93 211.384-442.609C633.3 1115.68 568.757 1264.05 458.568 1443.1c112.234-177.19 180.079-325.56 204.071-456.036-17.137 131.596-77.063 283.286-189.38 469.786 114.279-184.81 177.547-336.77 197.627-468.694-13.296 132.594-68.622 287.024-183.517 481.194 116.804-192.65 175.473-347.65 191.698-480.696-9.512 133.256-60.277 289.916-177.907 491.946 119.537-200.7 173.585-358.19 186.031-492.03-5.785 133.59-52.027 291.95-172.229 502 122.126-208.89 171.582-368.35 180.286-502.657-2.094 133.587-43.865 293.177-166.199 511.257 124.285-217.1 169.169-378.02 174.159-512.469 1.569 133.249-35.803 293.619-159.512 519.559 125.739-225.18 166.103-387.09 167.384-521.335 5.237 132.575-27.819 293.315-151.919 526.755 126.228-232.91 162.114-395.36 159.703-529.084 8.898 131.574-19.916 292.264-143.223 532.614 125.555-240.06 157.015-402.63 150.888-535.469 12.573 130.209-12.075 290.509-133.266 536.949 123.58-246.41 150.679-408.72 140.833-540.338 16.251 128.508-4.287 288.088-121.959 539.538 120.193-251.73 142.995-413.39 129.396-543.443 19.944 126.453 3.458 284.983-109.253 540.193 115.374-255.78 133.937-416.47 116.57-544.593 23.662 124.043 11.179 281.253-95.213 538.743Z" fill="#173F86"/></svg>